<svg width="254" height="72" viewBox="0 0 254 72" fill="none" xmlns="http://www.w3.org/2000/svg">
<path d="M101.832 27.4766L99.3125 27.1641V21.4414H121.715V27.1641L119.195 27.4766C118.844 27.2292 118.512 26.6693 118.199 25.7969H113.395V44.3516C114.436 44.7682 115.172 45.2109 115.602 45.6797L115.191 49H105.836L105.426 45.6797C105.777 45.224 106.513 44.7812 107.633 44.3516V25.7969H102.828C102.516 26.6693 102.184 27.2292 101.832 27.4766ZM141.07 38.5117C141.07 41.1159 140.628 43.2122 139.742 44.8008C138.857 46.3763 137.652 47.5221 136.129 48.2383C134.618 48.9414 132.913 49.293 131.012 49.293C128.043 49.293 125.758 48.5052 124.156 46.9297C122.568 45.3411 121.773 42.6784 121.773 38.9414C121.773 35.582 122.652 33.0365 124.41 31.3047C126.181 29.5599 128.596 28.6875 131.656 28.6875C134.781 28.6875 137.132 29.4557 138.707 30.9922C140.283 32.5286 141.07 35.0352 141.07 38.5117ZM127.594 38.8438C127.594 43.1016 128.876 45.2305 131.441 45.2305C132.743 45.2305 133.707 44.7487 134.332 43.7852C134.957 42.8086 135.27 41.2135 135.27 39C135.27 34.8464 133.961 32.7695 131.344 32.7695C130.068 32.7695 129.124 33.2318 128.512 34.1562C127.9 35.0677 127.594 36.6302 127.594 38.8438ZM153.922 49H143.707L143.316 45.6797C143.668 45.224 144.404 44.7812 145.523 44.3516V26.0703C144.417 25.6797 143.681 25.2305 143.316 24.7227L143.707 21.4023H152.633C155.497 21.4023 157.978 21.9427 160.074 23.0234C162.171 24.0911 163.785 25.6797 164.918 27.7891C166.064 29.8854 166.637 32.4831 166.637 35.582C166.637 38.681 166.122 41.2201 165.094 43.1992C164.065 45.1784 162.6 46.6432 160.699 47.5938C158.798 48.5312 156.539 49 153.922 49ZM153.082 25.7578H151.285V44.6445H154.156C155.497 44.6445 156.65 44.3906 157.613 43.8828C158.577 43.362 159.319 42.457 159.84 41.168C160.374 39.8789 160.641 38.0755 160.641 35.7578C160.641 29.0911 158.121 25.7578 153.082 25.7578ZM187.984 38.5117C187.984 41.1159 187.542 43.2122 186.656 44.8008C185.771 46.3763 184.566 47.5221 183.043 48.2383C181.533 48.9414 179.827 49.293 177.926 49.293C174.957 49.293 172.672 48.5052 171.07 46.9297C169.482 45.3411 168.688 42.6784 168.688 38.9414C168.688 35.582 169.566 33.0365 171.324 31.3047C173.095 29.5599 175.51 28.6875 178.57 28.6875C181.695 28.6875 184.046 29.4557 185.621 30.9922C187.197 32.5286 187.984 35.0352 187.984 38.5117ZM174.508 38.8438C174.508 43.1016 175.79 45.2305 178.355 45.2305C179.658 45.2305 180.621 44.7487 181.246 43.7852C181.871 42.8086 182.184 41.2135 182.184 39C182.184 34.8464 180.875 32.7695 178.258 32.7695C176.982 32.7695 176.038 33.2318 175.426 34.1562C174.814 35.0677 174.508 36.6302 174.508 38.8438ZM205.992 41.6758L208.941 42.0469V49H190.621L190.23 45.6797C190.582 45.224 191.318 44.7812 192.438 44.3516V26.0703C191.331 25.6797 190.595 25.2305 190.23 24.7227L190.621 21.4023H199.996L200.387 24.7227C199.957 25.2305 199.228 25.6797 198.199 26.0703V44.6445H204.508C204.859 43.2383 205.354 42.2487 205.992 41.6758ZM210.152 32.0859L210.543 29C212.053 28.6484 213.447 28.4727 214.723 28.4727C215.361 28.4727 215.947 28.4857 216.48 28.5117C217.014 28.5247 217.503 28.5573 217.945 28.6094V44.5664C218.987 44.957 219.723 45.4062 220.152 45.9141L219.762 49H210.543L210.152 45.9141C210.517 45.4062 211.253 44.957 212.359 44.5664V33.4336C211.409 33.1211 210.673 32.6719 210.152 32.0859ZM229.742 32.2812C227.984 32.2812 227.105 32.8021 227.105 33.8438C227.105 34.8333 228.03 35.5625 229.879 36.0312L233.023 36.8711C236.279 37.7305 237.906 39.612 237.906 42.5156C237.906 44.5078 237.21 46.1419 235.816 47.418C235.113 48.043 234.169 48.5117 232.984 48.8242C231.799 49.1237 230.523 49.2865 229.156 49.3125C227.802 49.3385 226.487 49.2409 225.211 49.0195C223.935 48.7982 222.861 48.4727 221.988 48.043C221.975 47.8997 221.962 47.7565 221.949 47.6133C221.949 47.457 221.949 47.3073 221.949 47.1641C221.949 45.6927 222.242 44.3711 222.828 43.1992H226.148C226.513 43.8633 226.741 44.5273 226.832 45.1914C227.34 45.3607 228.102 45.4453 229.117 45.4453C231.461 45.4453 232.633 44.7747 232.633 43.4336C232.633 43.0169 232.477 42.6654 232.164 42.3789C231.826 42.1055 231.194 41.832 230.27 41.5586L227.105 40.6406C225.478 40.1849 224.208 39.5143 223.297 38.6289C222.398 37.7305 221.949 36.4089 221.949 34.6641C221.949 32.9062 222.659 31.474 224.078 30.3672C224.781 29.8073 225.66 29.3906 226.715 29.1172C227.783 28.8438 228.922 28.7005 230.133 28.6875C231.344 28.6615 232.529 28.7526 233.688 28.9609C234.846 29.1562 235.882 29.4492 236.793 29.8398C236.806 29.9701 236.812 30.1003 236.812 30.2305C236.826 30.3607 236.832 30.4974 236.832 30.6406C236.832 32.0078 236.539 33.2904 235.953 34.4883H232.672C232.307 33.8503 232.079 33.2057 231.988 32.5547C231.22 32.3724 230.471 32.2812 229.742 32.2812ZM244.156 23.9609H247.066V29H252.789V32.3594H247.066V42.4766C247.066 43.349 247.19 43.9674 247.438 44.332C247.62 44.6185 247.958 44.8008 248.453 44.8789C248.961 44.944 249.54 44.9245 250.191 44.8203C250.842 44.7161 251.467 44.5469 252.066 44.3125L253.277 47.4375C251.22 48.4792 249.117 49 246.969 49C244.82 49 243.368 48.5443 242.613 47.6328C241.858 46.7083 241.48 45.3672 241.48 43.6094V32.3594H239.684L239.234 29.918C239.664 29.4102 240.543 28.9023 241.871 28.3945C242.21 26.194 242.971 24.7161 244.156 23.9609Z" fill="#6D7CFF"/>
<rect y="38" width="77" height="11" fill="#D9D9D9"/>
<path d="M10 21H66V32H10V21Z" fill="#D9D9D9"/>
</svg>
